<?xml version="1.0" standalone="no"?>
<!DOCTYPE svg PUBLIC "-//W3C//DTD SVG 20010904//EN"
 "http://www.w3.org/TR/2001/REC-SVG-20010904/DTD/svg10.dtd">
<svg version="1.0" xmlns="http://www.w3.org/2000/svg"
 width="320.000000pt" height="320.000000pt" viewBox="0 0 320.000000 320.000000"
 preserveAspectRatio="xMidYMid meet">

<g transform="translate(0.000000,320.000000) scale(0.100000,-0.100000)"
fill="#000000" stroke="none">
<path d="M1490 2410 c-47 -16 -164 -53 -260 -83 -96 -31 -296 -94 -445 -141
-148 -47 -332 -104 -408 -128 l-137 -43 2 -425 3 -425 305 -92 c168 -51 337
-102 375 -114 39 -12 207 -64 373 -114 l304 -92 586 184 c323 102 628 197 677
213 l90 28 3 426 c2 313 -1 426 -9 426 -10 0 -610 182 -1155 351 -104 32 -197
59 -205 58 -8 0 -52 -13 -99 -29z m365 -94 c116 -35 361 -110 545 -166 184
-56 376 -115 425 -130 l90 -28 3 -390 2 -390 -147 -46 c-82 -26 -188 -60 -238
-75 -49 -16 -280 -88 -513 -161 l-422 -133 -118 36 c-64 20 -295 91 -512 157
-217 67 -442 136 -500 155 -58 18 -124 38 -148 45 l-42 11 2 391 3 391 550
173 c303 95 591 186 640 203 61 21 103 29 130 26 22 -2 135 -33 250 -69z"/>
<path d="M1190 2250 c-223 -69 -448 -140 -500 -156 -189 -58 -392 -129 -391
-136 0 -5 1 -174 1 -376 l0 -368 82 -26 c46 -15 130 -41 188 -58 58 -17 146
-44 195 -60 202 -64 784 -240 813 -246 33 -7 10 -13 855 252 252 79 460 144
463 144 2 0 4 170 4 379 l0 379 -27 10 c-16 6 -140 45 -278 86 -137 42 -362
110 -500 151 -137 42 -302 92 -365 111 -63 19 -120 36 -125 38 -6 2 -192 -54
-415 -124z m416 33 c-3 -8 2 -13 12 -13 16 -1 16 -1 0 -11 -20 -11 -24 -54 -7
-65 7 -4 20 4 30 17 15 19 19 20 19 7 0 -16 -44 -58 -61 -58 -13 0 -69 51 -68
63 0 7 7 2 16 -10 24 -35 43 -29 43 12 0 26 -4 35 -17 36 -16 1 -16 2 0 6 10
3 16 10 14 17 -3 7 1 13 9 13 8 0 13 -6 10 -14z m204 -193 c0 -5 -4 -10 -10
-10 -5 0 -10 5 -10 10 0 6 5 10 10 10 6 0 10 -4 10 -10z m-354 -46 c17 -40 13
-54 -10 -35 -10 8 -16 9 -21 1 -3 -5 -11 -10 -16 -10 -14 0 -1 62 15 72 16 11
16 11 32 -28z m79 0 c1 -26 -3 -31 -21 -31 -17 0 -23 7 -26 28 -5 34 -1 41 27
37 15 -2 20 -11 20 -34z m85 24 c0 -7 3 -22 6 -33 4 -17 0 -20 -29 -21 -34 0
-34 0 -24 33 10 32 47 49 47 21z m55 2 c-3 -5 -2 -10 4 -10 5 0 13 5 16 10 3
6 11 10 17 10 7 0 6 -5 -2 -15 -6 -8 -9 -23 -5 -35 7 -21 -9 -28 -19 -7 -5 10
-7 10 -12 0 -11 -25 -25 -12 -22 22 1 22 7 35 16 35 7 0 10 -4 7 -10z m135
-28 c0 -38 -46 -56 -70 -27 -15 18 -4 52 18 58 25 5 52 -11 52 -31z m-451 7
c-8 -15 -8 -24 0 -32 18 -18 13 -31 -6 -16 -13 11 -17 11 -20 2 -8 -23 -21
-14 -25 17 -5 35 0 44 17 30 9 -8 14 -6 19 5 3 8 10 15 16 15 7 0 7 -7 -1 -21z
m516 10 c19 3 19 2 4 -15 -9 -11 -19 -28 -23 -38 -8 -24 -12 -20 -20 27 -6 31
-5 37 6 31 7 -5 22 -7 33 -5z m-825 -129 l0 -50 -50 0 -50 0 0 43 c0 24 3 47
7 50 3 4 26 7 50 7 l43 0 0 -50z m148 -3 l3 -47 -50 0 -51 0 0 51 0 50 48 -4
47 -4 3 -46z m877 3 l0 -45 -47 -3 -48 -3 0 49 0 49 48 -1 47 -1 0 -45z m145
32 c3 -8 4 -29 2 -48 -4 -35 -5 -35 -51 -32 -45 3 -46 4 -48 38 -1 19 0 41 2
48 6 17 88 11 95 -6z m-620 -332 l0 -230 -50 0 -50 0 -1 83 c-1 68 -2 77 -10
50 -9 -31 -12 -33 -55 -33 -37 0 -47 4 -51 20 -10 38 -19 20 -21 -47 -2 -36
-5 -70 -8 -75 -9 -15 -84 -9 -91 7 -3 9 -2 113 2 231 l7 215 47 -3 46 -3 28
-80 c15 -44 32 -84 36 -88 4 -4 21 27 36 70 41 115 39 113 90 113 l45 0 0
-230z m300 205 c15 -18 14 -223 -1 -241 -10 -12 -8 -42 7 -119 3 -11 7 -35 10
-54 l6 -33 -47 5 c-26 4 -49 8 -51 10 -2 2 -11 43 -20 90 -9 48 -20 87 -25 87
-5 0 -9 -40 -9 -90 l0 -90 -50 0 -50 0 0 228 0 227 109 -3 c77 -2 113 -7 121
-17z m-850 -175 l0 -190 25 0 25 0 0 190 0 190 50 0 50 0 0 -213 c0 -257 5
-247 -123 -259 -133 -11 -127 -23 -127 247 l0 225 50 0 50 0 0 -190z m1028
103 c1 -304 0 -295 23 -291 20 3 20 9 22 188 l2 185 46 3 c38 2 47 0 51 -15 2
-10 3 -110 2 -221 -3 -246 -1 -242 -102 -235 -150 10 -142 -4 -142 259 l0 214
49 0 48 0 1 -87z m321 -3 l3 -85 27 80 28 80 53 3 c40 2 51 0 48 -10 -3 -7
-22 -62 -43 -123 l-38 -110 40 -130 c45 -144 45 -146 -28 -128 -31 8 -34 13
-58 98 l-26 90 -3 -87 c-3 -95 -1 -92 -64 -82 l-38 7 0 237 c0 130 3 240 7
244 4 4 25 6 48 4 l40 -3 4 -85z m-1529 60 c6 -11 10 -46 8 -77 l-3 -56 -45
-13 c-25 -8 -46 -14 -47 -14 -1 0 -3 19 -5 43 -2 34 -7 42 -23 42 -19 0 -20
-8 -23 -152 l-3 -153 26 0 c22 0 25 4 25 35 0 22 -6 38 -15 41 -21 9 -21 90 1
98 31 12 74 6 93 -13 27 -27 30 -188 3 -221 -28 -35 -192 -56 -220 -28 -9 9
-12 73 -12 228 0 273 -6 260 130 260 89 0 100 -2 110 -20z m-375 -199 c3 -9
19 -25 37 -36 l32 -18 -25 -16 c-13 -9 -37 -29 -52 -46 -27 -29 -29 -29 -43
-11 -7 11 -14 23 -14 26 0 4 -11 12 -25 18 -31 14 -32 39 -2 53 12 5 30 24 40
41 14 25 20 28 32 18 8 -6 17 -19 20 -29z m2256 -10 c9 -9 24 -21 35 -28 18
-12 18 -13 -9 -36 -16 -13 -37 -37 -47 -52 l-19 -29 -18 32 c-10 17 -28 36
-40 41 -13 6 -23 18 -23 26 0 8 10 20 23 26 12 5 31 24 41 42 17 30 19 31 30
13 6 -11 18 -26 27 -35z m-1226 -325 c0 -11 -8 -20 -17 -22 -13 -2 -18 5 -18
23 0 18 5 24 18 21 9 -2 17 -12 17 -22z m55 4 c0 -11 -7 -20 -15 -20 -8 0 -15
9 -15 20 0 11 7 20 15 20 8 0 15 -9 15 -20z m27 -12 c-3 -7 -5 -2 -5 12 0 14
2 19 5 13 2 -7 2 -19 0 -25z m59 23 c11 9 14 7 14 -9 0 -14 -7 -19 -24 -19
-17 0 -23 4 -21 16 5 26 6 27 12 13 4 -10 8 -10 19 -1z m114 -22 c0 -10 -5
-19 -11 -19 -5 0 -8 4 -4 9 3 5 1 12 -5 16 -6 4 -8 11 -4 16 8 14 24 0 24 -22z
m-554 -18 c-9 -14 -33 -14 -41 -1 -4 6 -1 18 6 26 11 13 14 13 27 0 8 -8 11
-19 8 -25z m61 23 c3 -8 1 -20 -5 -26 -15 -15 -43 8 -35 28 7 19 32 18 40 -2z
m61 -7 c2 -12 -3 -17 -17 -17 -15 0 -21 6 -21 21 0 25 33 22 38 -4z m80 11
c18 -18 15 -28 -8 -28 -13 0 -20 7 -20 20 0 23 10 26 28 8z m302 -8 c0 -13 -5
-18 -15 -14 -8 4 -15 12 -15 20 0 8 7 14 15 14 8 0 15 -9 15 -20z m113 0 c-3
-11 -7 -20 -9 -20 -2 0 -4 9 -4 20 0 11 4 20 9 20 5 0 7 -9 4 -20z m60 12 c3
7 6 3 6 -8 1 -17 -4 -22 -24 -20 -14 0 -25 6 -25 12 0 18 12 24 26 13 8 -7 14
-6 17 3z m116 -34 c1 -5 -5 -8 -13 -8 -11 0 -15 29 -7 50 3 5 19 -30 20 -42z
m-866 12 c-3 -11 -7 -20 -9 -20 -2 0 -4 9 -4 20 0 11 4 20 9 20 5 0 7 -9 4
-20z m817 5 c0 -8 -4 -15 -10 -15 -5 0 -7 7 -4 15 4 8 8 15 10 15 2 0 4 -7 4
-15z m93 -5 c-3 -11 -7 -20 -8 -20 -1 0 -5 9 -8 20 -3 12 0 20 8 20 8 0 11 -8
8 -20z m57 -8 c0 -11 -8 -18 -20 -18 -23 0 -23 1 -9 27 11 22 29 17 29 -9z
m-1104 9 c-4 -5 -1 -11 6 -13 6 -2 8 -10 4 -16 -12 -19 -21 -14 -22 13 -1 14
2 25 8 25 5 0 7 -4 4 -9z m74 -13 c0 -16 -3 -18 -14 -9 -11 9 -15 9 -19 -1 -3
-7 -6 -4 -6 7 -1 14 6 21 19 22 14 1 20 -4 20 -19z m1070 8 c0 -8 -4 -18 -10
-21 -5 -3 -10 3 -10 14 0 12 5 21 10 21 6 0 10 -6 10 -14z m26 -23 c-11 -11
-19 6 -11 24 8 17 8 17 12 0 3 -10 2 -21 -1 -24z m52 9 c-5 -27 -28 -26 -28 2
0 19 4 24 15 19 9 -3 15 -12 13 -21z m-1310 -5 c2 -10 -3 -17 -11 -17 -16 0
-30 24 -19 34 10 10 27 1 30 -17z m42 3 c0 -11 -4 -20 -10 -20 -5 0 -10 9 -10
20 0 11 5 20 10 20 6 0 10 -9 10 -20z m1310 -10 c5 0 11 8 14 18 3 10 4 6 3
-8 -1 -15 -8 -25 -17 -25 -9 0 -16 10 -17 25 -1 14 0 18 3 8 3 -10 9 -18 14
-18z m-1410 6 c0 -8 -4 -18 -10 -21 -5 -3 -10 3 -10 14 0 12 5 21 10 21 6 0
10 -6 10 -14z m1463 -6 c3 -11 1 -20 -4 -20 -5 0 -9 9 -9 20 0 11 2 20 4 20 2
0 6 -9 9 -20z m-1628 -1 c5 -6 27 -9 59 -5 l51 5 -49 -12 c-27 -7 -51 -18 -54
-25 -7 -22 -19 -12 -17 13 2 17 -2 25 -13 25 -12 0 -13 -3 -4 -12 16 -16 -3
-48 -30 -48 -15 0 -19 5 -15 20 3 11 0 23 -6 27 -7 4 -3 9 9 14 28 11 62 10
69 -2z m1852 3 c6 -4 9 -19 6 -36 -5 -25 -9 -27 -36 -22 -17 3 -38 12 -46 20
-9 8 -25 16 -36 19 -15 4 -14 5 7 6 15 0 30 6 33 11 7 12 55 13 72 2z m-144
-9 c-7 -2 -19 -2 -25 0 -7 3 -2 5 12 5 14 0 19 -2 13 -5z m-798 -178 c13 17
24 26 25 21 0 -5 7 -2 17 5 15 13 15 12 2 -8 -8 -13 -16 -23 -19 -23 -4 0 -15
-6 -26 -14 -18 -14 -18 -16 21 -55 21 -23 35 -41 29 -41 -6 0 -25 16 -44 35
l-34 35 -41 -37 -40 -38 38 40 37 41 -35 34 c-19 19 -35 38 -35 44 0 6 18 -8
40 -29 l41 -40 24 30z m-332 -51 c-10 -25 -23 -15 -23 19 1 30 2 31 15 14 7
-11 11 -25 8 -33z m157 14 c0 -15 -4 -28 -10 -28 -5 0 -10 12 -10 26 0 14 -4
23 -10 19 -5 -3 -10 -2 -10 4 0 5 9 9 20 8 15 -1 20 -8 20 -29z m303 25 c4 -3
2 -12 -4 -20 -9 -9 -8 -13 0 -13 6 0 11 -4 11 -10 0 -5 -14 -10 -32 -10 -29 0
-30 1 -15 18 10 10 17 24 17 30 0 13 13 16 23 5z m37 -24 c0 -27 -2 -30 -15
-19 -11 9 -12 17 -4 31 14 27 19 24 19 -12z m35 21 c7 -12 -3 -50 -13 -50 -4
0 -7 14 -7 30 0 30 8 39 20 20z m45 -20 c0 -16 -4 -30 -9 -30 -10 0 -21 47
-13 55 13 13 22 3 22 -25z m63 -22 c-2 -5 -8 -8 -14 -8 -11 0 -12 43 -2 54 9
8 22 -34 16 -46z m-539 20 c2 -10 0 -21 -5 -24 -5 -3 -9 0 -9 5 0 15 -27 14
-33 -1 -3 -7 -6 -2 -6 12 -1 20 4 25 23 25 15 0 27 -7 30 -17z m326 12 c0 -5
-2 -10 -4 -10 -3 0 -8 5 -11 10 -3 6 -1 10 4 10 6 0 11 -4 11 -10z"/>
<path d="M1420 2040 c0 -5 5 -10 10 -10 6 0 10 5 10 10 0 6 -4 10 -10 10 -5 0
-10 -4 -10 -10z"/>
<path d="M1755 2051 c-8 -15 3 -31 21 -31 9 0 14 7 12 17 -4 20 -24 28 -33 14z"/>
<path d="M1007 1927 c-34 -28 -34 -33 0 -32 23 0 28 5 30 28 1 15 1 27 -1 27
-2 0 -15 -10 -29 -23z"/>
<path d="M1163 1926 c3 -8 -1 -13 -10 -12 -9 0 -18 -4 -20 -10 -2 -7 5 -10 22
-7 25 5 38 43 14 43 -6 0 -9 -6 -6 -14z"/>
<path d="M2023 1921 c-26 -22 -22 -30 12 -23 16 3 25 11 25 23 0 24 -9 24 -37
0z"/>
<path d="M2177 1922 l-28 -29 26 0 c28 0 39 14 33 42 -2 13 -9 11 -31 -13z"/>
<path d="M1332 1818 c-8 -8 -9 -15 -1 -25 7 -7 8 -13 4 -13 -4 0 -1 -7 6 -16
7 -9 14 -22 15 -29 1 -7 9 -28 17 -46 9 -19 19 -45 23 -59 3 -14 13 -34 21
-45 13 -19 13 -17 10 15 -5 45 -35 129 -56 154 -9 11 -10 16 -3 12 16 -9 15
-6 -4 32 -18 37 -16 36 -32 20z"/>
<path d="M1562 1813 c-5 -10 -8 -92 -7 -183 1 -123 -2 -171 -12 -187 -7 -12
-13 -24 -13 -26 0 -3 21 -2 51 2 8 1 5 34 -6 50 -4 8 -4 12 1 8 11 -7 11 103
0 122 -6 9 -5 12 1 8 12 -8 11 52 -1 71 -4 7 -3 12 2 12 4 0 8 31 8 70 -1 70
-8 85 -24 53z"/>
<path d="M1507 1708 c-43 -121 -59 -154 -78 -170 -21 -18 -21 -18 9 -18 23 0
31 5 36 25 4 14 6 27 6 30 0 3 7 19 15 35 9 17 13 30 11 30 -3 0 2 23 10 51
19 63 12 76 -9 17z"/>
<path d="M1323 1593 c1 -140 -1 -154 -19 -168 -18 -15 -18 -15 11 -13 l30 3 1
126 c0 73 -5 142 -12 165 -11 34 -12 21 -11 -113z"/>
<path d="M1873 1717 c2 -102 2 -103 -20 -99 -27 5 -26 7 -13 -38 10 -35 20
-83 25 -128 1 -12 -4 -26 -12 -31 -11 -5 -6 -8 16 -9 36 -1 36 -3 15 99 -14
68 -14 80 -1 101 10 16 14 48 12 108 -2 101 -2 100 -15 100 -5 0 -8 -43 -7
-103z"/>
<path d="M1725 1802 c-10 -11 -4 -99 8 -111 10 -11 10 -13 0 -7 -9 5 -13 -1
-13 -20 0 -22 2 -25 15 -14 10 8 15 31 15 71 0 57 1 59 28 60 49 2 55 4 59 15
4 11 -102 16 -112 6z"/>
<path d="M1770 1718 c0 -41 3 -48 20 -48 17 0 20 7 20 49 0 44 -2 50 -20 48
-17 -1 -20 -8 -20 -49z"/>
<path d="M1725 1605 c-6 -29 -1 -78 9 -94 6 -10 5 -12 -2 -7 -8 5 -12 -4 -12
-28 0 -19 -5 -38 -11 -42 -8 -5 -6 -10 6 -16 29 -17 37 5 33 98 l-3 89 25 0
c39 0 34 19 -5 20 -28 0 -37 -4 -40 -20z"/>
<path d="M1164 1808 c-12 -33 -13 -291 -1 -305 6 -9 6 -13 -1 -13 -5 0 -9 -15
-8 -32 2 -30 0 -33 -28 -34 -17 -1 -51 -4 -76 -7 -25 -3 -49 -5 -54 -6 -5 -1
-6 -4 -2 -8 11 -11 86 -10 86 0 0 5 7 4 15 -3 9 -7 15 -8 15 -2 0 5 9 8 20 5
22 -6 53 14 44 28 -3 5 -1 9 5 9 7 0 7 8 1 25 -5 14 -6 25 -2 25 7 0 6 329 -2
337 -2 3 -8 -6 -12 -19z"/>
<path d="M1017 1813 c-10 -16 -11 -58 -3 -72 7 -10 5 -12 -3 -6 -10 6 -11 3
-3 -12 6 -10 7 -25 2 -33 -9 -18 -7 -71 4 -88 4 -7 3 -12 -2 -12 -11 0 -10
-50 2 -69 6 -10 5 -12 -2 -7 -16 10 -15 -7 1 -23 7 -8 7 -11 1 -8 -7 4 -11 -3
-11 -18 0 -27 9 -32 24 -12 10 13 9 109 -1 126 -4 6 -2 11 5 11 8 0 8 4 -1 15
-7 8 -8 15 -3 15 4 0 8 45 8 100 0 90 -5 115 -18 93z"/>
<path d="M2041 1816 c-12 -14 -13 -21 -2 -38 7 -11 8 -17 2 -13 -15 9 -14 -8
2 -24 6 -8 7 -11 1 -8 -15 9 -15 -163 0 -182 8 -11 8 -13 -1 -8 -8 5 -11 -8
-11 -43 -1 -47 12 -67 24 -37 2 7 3 93 2 191 -3 158 -5 177 -17 162z"/>
<path d="M2193 1815 c-7 -8 -13 -20 -13 -28 0 -7 6 -19 13 -26 10 -10 8 -11
-7 -5 -15 6 -17 4 -11 -7 5 -7 8 -53 6 -102 -2 -62 1 -93 11 -104 7 -9 8 -14
2 -10 -7 4 -12 -12 -13 -50 -2 -74 -4 -75 -101 -60 -38 7 -71 -5 -50 -18 6 -4
14 -4 17 -1 3 3 12 1 20 -5 10 -9 13 -8 13 0 0 7 5 9 13 4 19 -12 89 -14 104
-2 17 14 16 356 -1 378 -8 11 -8 13 0 8 7 -4 12 2 12 18 0 14 -1 25 -2 25 0
-1 -7 -7 -13 -15z"/>
<path d="M2364 1809 c-10 -17 -13 -189 -2 -189 21 0 32 94 13 119 -6 10 -7 13
0 9 7 -4 10 7 10 28 -1 38 -9 51 -21 33z"/>
<path d="M2506 1791 c-9 -10 -18 -27 -21 -37 -2 -11 -13 -46 -25 -79 -30 -84
-32 -101 -15 -115 8 -7 12 -16 9 -21 -3 -5 -2 -15 3 -21 4 -7 8 -17 8 -23 1
-5 4 -18 8 -27 24 -61 26 -75 15 -99 -5 -12 -2 -18 12 -22 24 -6 35 7 25 31
-4 9 -9 30 -11 46 -2 16 -9 35 -15 43 -6 7 -8 13 -5 13 4 0 1 10 -6 23 -7 12
-11 26 -10 31 2 5 -5 18 -15 29 -10 11 -13 17 -6 14 7 -5 12 -1 12 10 0 31 9
70 20 90 7 15 7 24 -2 33 -8 9 -8 11 -1 7 14 -8 27 20 17 35 -3 6 -1 8 4 5 6
-4 14 5 17 19 9 34 3 39 -18 15z"/>
<path d="M2359 1594 c0 -5 -2 -18 -4 -29 -2 -10 1 -25 7 -32 12 -15 32 -18 23
-3 -3 5 2 21 11 35 9 14 12 25 6 25 -6 0 -17 3 -26 6 -9 3 -16 2 -17 -2z"/>
<path d="M2355 1479 c1 -33 -4 -66 -13 -84 -8 -16 -11 -27 -7 -23 5 4 14 3 21
-3 20 -16 29 9 26 76 -1 34 -8 66 -16 73 -12 12 -14 6 -11 -39z"/>
<path d="M836 1788 c-12 -60 -14 -98 -5 -98 6 0 7 5 4 10 -3 6 1 10 9 10 12 0
16 11 16 44 0 48 -16 71 -24 34z"/>
<path d="M780 1794 c0 -7 -18 -9 -44 -7 -49 5 -65 -8 -44 -34 7 -9 8 -14 2
-10 -13 7 -12 -262 1 -283 5 -8 4 -11 -3 -6 -7 4 -10 -3 -8 -19 4 -37 12 -40
24 -6 6 16 8 32 4 35 -9 10 -9 46 0 46 5 0 6 5 2 11 -8 13 -11 99 -4 99 3 0 5
17 4 38 -1 20 -3 37 -4 37 -1 0 -2 16 -3 36 l-2 35 42 -2 c45 -3 63 10 44 29
-7 7 -11 7 -11 1z"/>
<path d="M844 1582 c-12 -9 -13 -91 0 -111 6 -10 6 -12 -2 -7 -7 4 -12 2 -12
-3 0 -6 6 -11 13 -11 8 0 7 -4 -3 -10 -13 -9 -13 -11 0 -20 11 -7 11 -10 2
-10 -7 0 -11 -4 -8 -8 2 -4 -3 -8 -12 -9 -98 -7 -138 -15 -152 -29 -14 -15
-11 -16 35 -10 28 4 67 8 87 10 62 6 67 15 66 127 0 54 -1 99 -2 99 0 0 -6 -4
-12 -8z"/>
<path d="M780 1550 c-8 -5 -11 -12 -7 -16 4 -4 13 -2 19 4 6 6 10 14 7 16 -2
3 -11 1 -19 -4z"/>
<path d="M451 1622 c-15 -28 -14 -31 9 -29 21 1 25 14 11 36 -7 11 -11 10 -20
-7z"/>
<path d="M490 1564 c0 -22 3 -23 20 -14 11 6 20 15 20 19 0 5 -9 11 -20 14
-16 4 -20 0 -20 -19z"/>
<path d="M407 1573 c-13 -12 -7 -23 12 -23 12 0 21 -9 25 -26 7 -27 29 -28 34
-2 2 9 -6 18 -18 21 -11 3 -20 12 -20 21 0 16 -21 22 -33 9z"/>
<path d="M2701 1622 c-15 -28 -14 -31 9 -29 21 1 25 14 11 36 -7 11 -11 10
-20 -7z"/>
<path d="M2657 1579 c-21 -12 -13 -29 13 -29 11 0 20 -10 24 -26 4 -14 12 -24
19 -21 21 7 18 32 -5 42 -13 6 -23 15 -23 22 0 18 -9 22 -28 12z"/>
<path d="M2744 1582 c-15 -11 -10 -37 6 -34 8 2 19 7 23 11 11 11 -16 32 -29
23z"/>
<path d="M2705 1570 c-3 -5 -1 -10 4 -10 6 0 11 5 11 10 0 6 -2 10 -4 10 -3 0
-8 -4 -11 -10z"/>
<path d="M1195 1270 c3 -5 8 -10 11 -10 2 0 4 5 4 10 0 6 -5 10 -11 10 -5 0
-7 -4 -4 -10z"/>
<path d="M1260 1280 c0 -5 5 -10 10 -10 6 0 10 5 10 10 0 6 -4 10 -10 10 -5 0
-10 -4 -10 -10z"/>
<path d="M1320 1280 c0 -5 5 -10 10 -10 6 0 10 5 10 10 0 6 -4 10 -10 10 -5 0
-10 -4 -10 -10z"/>
<path d="M640 1200 c0 -5 4 -10 9 -10 6 0 13 5 16 10 3 6 -1 10 -9 10 -9 0
-16 -4 -16 -10z"/>
<path d="M2497 1233 c-11 -11 -8 -33 5 -33 6 0 8 3 5 7 -4 3 -2 12 4 20 11 13
-2 19 -14 6z"/>
<path d="M2535 1230 c-3 -5 -1 -10 4 -10 6 0 11 5 11 10 0 6 -2 10 -4 10 -3 0
-8 -4 -11 -10z"/>
<path d="M2525 1200 c3 -5 10 -10 16 -10 5 0 9 5 9 10 0 6 -7 10 -16 10 -8 0
-12 -4 -9 -10z"/>
</g>
</svg>
